<svg width="373" height="100" viewBox="0 0 373 100" fill="none" xmlns="http://www.w3.org/2000/svg">
<g id="Logo Dark">
<!-- <rect width="373" height="100" fill="white"/> -->
<g id="Logo">
<path id="cap" d="M0 0.42688C0 1.06263 0.836514 1.7653 3.34605 3.17064C5.85559 4.60945 13.953 8.29011 19.1394 10.3981C21.1136 11.1677 22.6862 11.8704 22.6528 11.9373C22.5859 11.9708 21.5151 11.7365 20.2436 11.3685C18.9721 11.0004 17.9014 10.7662 17.801 10.8331C17.7006 10.9335 16.4626 22.377 15.9941 27.5968C15.8938 28.5337 15.9607 28.6007 17.3995 28.8349C18.236 28.9687 20.8459 29.4037 23.1882 29.7718C30.8506 30.9764 39.7846 34.4897 45.5063 38.505C46.5436 39.2076 47.4805 39.8099 47.5809 39.8099C47.8486 39.8099 57.2175 25.2211 57.2175 24.8196C57.2175 24.6523 56.3141 24.1504 55.2099 23.7489C52.4996 22.7451 52.3657 22.3435 54.9757 23.1131C66.6868 26.4592 67.423 26.6934 67.3226 27.2288C67.0884 28.6007 63.5081 37.8358 62.6047 39.5088C61.5339 41.416 60.9651 43.9925 61.3666 45.0298C61.5674 45.5651 61.6343 45.5651 62.2031 45.0298C63.0731 44.2267 64.2108 41.483 64.445 39.5757C64.6123 38.2707 68.0587 27.6303 68.4937 27.1284C68.5606 27.028 69.9994 27.2288 71.7059 27.5634C75.1189 28.1991 77.4611 28.3664 77.8292 27.9984C79.1676 26.6599 64.3446 19.7336 44.8371 12.64C21.8497 4.27484 0 -1.68113 0 0.42688Z" fill="white"/>
<path id="S" d="M11.4435 32.7498C9.06781 35.1254 7.36132 37.8358 6.39096 40.7803C3.91488 48.3089 4.85178 56.9083 8.63282 61.5258C11.0085 64.4369 16.8976 67.3814 24.7608 69.5898C29.0772 70.7944 32.5571 72.2667 33.7617 73.3709C35.4347 74.91 35.9032 77.5534 34.9663 79.8622C34.2636 81.5352 33.5944 82.2379 31.7541 83.1413C26.5342 85.8182 19.5075 84.2455 12.1127 78.8249L10.0716 77.3192L8.3986 80.3976C4.78486 87.1231 2.34224 91.8076 2.34224 92.0084C2.34224 92.4099 7.72939 95.4213 10.7408 96.6928C14.02 98.0982 17.8345 99.1355 21.8497 99.6708C33.7951 101.31 45.9748 96.6928 50.5923 88.7627C54.4403 82.2379 55.0426 71.5974 51.9308 65.4072C49.6889 60.9235 44.0341 57.3767 35.167 54.8337C27.4711 52.6253 24.5266 51.0527 23.757 48.6435C22.4855 44.829 26.1996 41.4495 31.5533 41.4495C35.9032 41.4495 39.2492 42.4868 42.6287 44.829L44.1345 45.8663L45.2052 43.7917L46.2425 41.7172L45.4729 41.0814C42.5283 38.7726 35.3343 35.1589 30.6164 33.6866C26.1996 32.3148 17.4329 30.7756 13.8861 30.7756C13.6519 30.7756 12.5477 31.679 11.4435 32.7498Z" fill="#e4cff0"/>
</g>
<path id="haranam Chotai" d="M62.056 61.32C62.056 60.264 61.96 59.512 61.768 59.064C64.264 58.2 66.616 57.768 68.824 57.768C69.112 58.056 69.256 58.792 69.256 59.976C69.256 62.088 68.36 66.952 66.568 74.568C69.16 72.68 71.432 71.736 73.384 71.736C74.6 71.736 75.512 72.12 76.12 72.888C76.76 73.656 77.08 74.68 77.08 75.96C77.08 77.208 76.712 79.272 75.976 82.152C75.24 85 74.872 86.952 74.872 88.008C74.872 89.064 75 89.592 75.256 89.592C75.512 89.592 76.184 89.304 77.272 88.728L77.848 88.44L78.712 90.12C78.424 90.376 78.04 90.696 77.56 91.08C77.08 91.464 76.2 91.976 74.92 92.616C73.64 93.256 72.456 93.576 71.368 93.576C70.312 93.576 69.464 93.24 68.824 92.568C68.184 91.864 67.864 90.936 67.864 89.784C67.864 88.6 68.216 86.472 68.92 83.4C69.656 80.296 70.024 78.344 70.024 77.544C70.024 76.712 69.688 76.296 69.016 76.296C68.184 76.296 67.144 76.648 65.896 77.352C64.136 85.096 63.256 90.12 63.256 92.424C61.912 92.936 59.624 93.192 56.392 93.192C56.36 92.648 56.344 92.168 56.344 91.752C56.344 90.376 57.288 85.672 59.176 77.64C61.096 69.608 62.056 64.168 62.056 61.32ZM94.5565 73.128C94.6205 73.064 94.7965 72.648 95.0845 71.88C96.5885 71.88 98.6045 72.328 101.133 73.224C100.333 75.88 99.6925 78.664 99.2125 81.576C98.7325 84.456 98.4925 86.52 98.4925 87.768C98.4925 88.984 98.6205 89.592 98.8765 89.592C99.0685 89.592 99.7725 89.288 100.989 88.68L101.565 88.392L102.429 90.072C102.141 90.328 101.757 90.648 101.277 91.032C100.829 91.416 99.9645 91.944 98.6845 92.616C97.4045 93.256 96.2525 93.576 95.2285 93.576C93.2445 93.576 92.0925 92.68 91.7725 90.888C89.7245 92.68 87.8685 93.576 86.2045 93.576C84.5725 93.576 83.1805 92.936 82.0285 91.656C80.9085 90.376 80.3485 88.36 80.3485 85.608C80.3485 81.32 81.2285 77.944 82.9885 75.48C84.7485 72.984 86.8765 71.736 89.3725 71.736C91.1645 71.736 92.8925 72.2 94.5565 73.128ZM89.0845 89.496C89.8525 89.496 90.7165 89.192 91.6765 88.584C91.9005 84.072 92.6525 79.608 93.9325 75.192C92.9725 74.776 92.1565 74.568 91.4845 74.568C90.3325 74.568 89.3405 75.704 88.5085 77.976C87.7085 80.216 87.3085 82.696 87.3085 85.416C87.3085 88.136 87.9005 89.496 89.0845 89.496ZM104.275 93.144H103.939C103.875 92.888 103.843 92.312 103.843 91.416C103.843 90.488 104.275 88.024 105.139 84.024C106.003 80.024 106.435 77.736 106.435 77.16C106.435 76.168 105.987 75.08 105.091 73.896L104.659 73.32L104.707 72.696C106.435 72.216 109.203 71.976 113.011 71.976C113.395 72.808 113.587 73.976 113.587 75.48C113.939 74.904 114.675 74.136 115.795 73.176C116.915 72.216 118.067 71.736 119.251 71.736C120.979 71.736 121.843 73.24 121.843 76.248C121.683 76.44 121.459 76.696 121.171 77.016C120.915 77.304 120.371 77.72 119.539 78.264C118.739 78.808 117.955 79.144 117.187 79.272C117.155 79.272 116.883 78.84 116.371 77.976C115.859 77.112 115.475 76.68 115.219 76.68C114.419 76.968 113.715 77.448 113.107 78.12C111.635 84.744 110.899 89.032 110.899 90.984C110.899 91.688 110.915 92.184 110.947 92.472C109.827 92.92 107.603 93.144 104.275 93.144ZM135.103 73.128C135.167 73.064 135.343 72.648 135.631 71.88C137.135 71.88 139.151 72.328 141.679 73.224C140.879 75.88 140.239 78.664 139.759 81.576C139.279 84.456 139.039 86.52 139.039 87.768C139.039 88.984 139.167 89.592 139.423 89.592C139.615 89.592 140.319 89.288 141.535 88.68L142.111 88.392L142.975 90.072C142.687 90.328 142.303 90.648 141.823 91.032C141.375 91.416 140.511 91.944 139.231 92.616C137.951 93.256 136.799 93.576 135.775 93.576C133.791 93.576 132.639 92.68 132.319 90.888C130.271 92.68 128.415 93.576 126.751 93.576C125.119 93.576 123.727 92.936 122.575 91.656C121.455 90.376 120.895 88.36 120.895 85.608C120.895 81.32 121.775 77.944 123.535 75.48C125.295 72.984 127.423 71.736 129.919 71.736C131.711 71.736 133.439 72.2 135.103 73.128ZM129.631 89.496C130.399 89.496 131.263 89.192 132.223 88.584C132.447 84.072 133.199 79.608 134.479 75.192C133.519 74.776 132.703 74.568 132.031 74.568C130.879 74.568 129.887 75.704 129.055 77.976C128.255 80.216 127.855 82.696 127.855 85.416C127.855 88.136 128.447 89.496 129.631 89.496ZM145.158 93.144H144.246C144.246 91.64 144.694 88.76 145.59 84.504C146.518 80.248 146.982 77.832 146.982 77.256C146.982 76.2 146.534 75.08 145.638 73.896L145.206 73.32L145.254 72.696C146.982 72.216 149.75 71.976 153.558 71.976C153.974 72.52 154.198 73.512 154.23 74.952C157.014 72.808 159.366 71.736 161.286 71.736C162.438 71.736 163.35 72.136 164.022 72.936C164.726 73.736 165.078 74.744 165.078 75.96C165.078 77.144 164.71 79.208 163.974 82.152C163.238 85.096 162.87 87.08 162.87 88.104C162.87 89.096 162.998 89.592 163.254 89.592C163.446 89.592 164.118 89.288 165.27 88.68L165.846 88.392L166.71 90.072C166.422 90.328 166.038 90.648 165.558 91.032C165.078 91.416 164.182 91.944 162.87 92.616C161.59 93.256 160.438 93.576 159.414 93.576C157.078 93.576 155.91 92.248 155.91 89.592C155.91 88.472 156.262 86.408 156.966 83.4C157.702 80.392 158.07 78.456 158.07 77.592C158.07 76.728 157.798 76.296 157.254 76.296C156.326 76.296 155.19 76.696 153.846 77.496C153.75 78.04 153.43 79.48 152.886 81.816C151.766 86.84 151.206 90.392 151.206 92.472C150.086 92.92 148.07 93.144 145.158 93.144ZM182.541 73.128C182.605 73.064 182.781 72.648 183.069 71.88C184.573 71.88 186.589 72.328 189.117 73.224C188.317 75.88 187.677 78.664 187.197 81.576C186.717 84.456 186.477 86.52 186.477 87.768C186.477 88.984 186.605 89.592 186.861 89.592C187.053 89.592 187.757 89.288 188.973 88.68L189.549 88.392L190.413 90.072C190.125 90.328 189.741 90.648 189.261 91.032C188.813 91.416 187.949 91.944 186.669 92.616C185.389 93.256 184.237 93.576 183.213 93.576C181.229 93.576 180.077 92.68 179.757 90.888C177.709 92.68 175.853 93.576 174.189 93.576C172.557 93.576 171.165 92.936 170.013 91.656C168.893 90.376 168.333 88.36 168.333 85.608C168.333 81.32 169.213 77.944 170.973 75.48C172.733 72.984 174.861 71.736 177.357 71.736C179.149 71.736 180.877 72.2 182.541 73.128ZM177.069 89.496C177.837 89.496 178.701 89.192 179.661 88.584C179.885 84.072 180.637 79.608 181.917 75.192C180.957 74.776 180.141 74.568 179.469 74.568C178.317 74.568 177.325 75.704 176.493 77.976C175.693 80.216 175.293 82.696 175.293 85.416C175.293 88.136 175.885 89.496 177.069 89.496ZM192.595 93.144H191.683C191.683 91.64 192.131 88.76 193.027 84.504C193.955 80.248 194.419 77.832 194.419 77.256C194.419 76.2 193.971 75.08 193.075 73.896L192.643 73.32L192.691 72.696C194.419 72.216 197.187 71.976 200.995 71.976C201.443 72.584 201.667 73.576 201.667 74.952C204.547 72.808 206.835 71.736 208.531 71.736C210.675 71.736 211.939 72.84 212.323 75.048C213.187 74.344 214.307 73.624 215.683 72.888C217.091 72.12 218.339 71.736 219.427 71.736C220.547 71.736 221.475 72.104 222.211 72.84C222.947 73.544 223.315 74.536 223.315 75.816C223.315 77.096 222.963 79.208 222.259 82.152C221.555 85.096 221.203 87.08 221.203 88.104C221.203 89.096 221.347 89.592 221.635 89.592C221.827 89.592 222.483 89.288 223.603 88.68L224.131 88.392L224.995 90.072C224.163 90.904 223.027 91.704 221.587 92.472C220.179 93.208 218.931 93.576 217.843 93.576C215.443 93.576 214.243 92.216 214.243 89.496C214.243 88.504 214.579 86.52 215.251 83.544C215.955 80.536 216.307 78.584 216.307 77.688C216.307 76.76 216.035 76.296 215.491 76.296C214.563 76.296 213.507 76.648 212.323 77.352C212.259 77.992 211.811 80.168 210.979 83.88C210.179 87.592 209.779 90.472 209.779 92.52C208.851 92.936 206.675 93.144 203.251 93.144C203.187 92.792 203.155 91.944 203.155 90.6C203.155 89.256 203.523 86.968 204.259 83.736C205.027 80.504 205.411 78.456 205.411 77.592C205.411 76.728 205.107 76.296 204.499 76.296C203.539 76.296 202.483 76.68 201.331 77.448C201.267 77.736 200.947 79.144 200.371 81.672C199.219 86.728 198.643 90.328 198.643 92.472C197.523 92.92 195.507 93.144 192.595 93.144ZM247.487 93.576C244.511 93.576 242.047 92.376 240.095 89.976C238.143 87.544 237.167 84.376 237.167 80.472C237.167 76.568 237.839 73.016 239.183 69.816C240.527 66.584 242.447 63.96 244.943 61.944C247.439 59.928 250.095 58.92 252.911 58.92C255.759 58.92 258.047 59.56 259.775 60.84C261.535 62.12 262.415 63.656 262.415 65.448C262.415 67.208 261.887 68.712 260.831 69.96C259.807 69.96 258.655 69.736 257.375 69.288C256.095 68.84 255.135 68.296 254.495 67.656L255.407 62.808C254.639 62.328 253.631 62.088 252.383 62.088C250.431 62.088 248.703 63.768 247.199 67.128C245.695 70.456 244.943 74.568 244.943 79.464C244.943 82.696 245.471 85.048 246.527 86.52C247.615 87.96 248.927 88.68 250.463 88.68C252.991 88.68 255.423 87.496 257.759 85.128L259.727 86.904C259.375 87.416 258.735 88.12 257.807 89.016C256.879 89.912 255.967 90.664 255.071 91.272C254.175 91.848 253.039 92.376 251.663 92.856C250.287 93.336 248.895 93.576 247.487 93.576ZM267.79 61.32C267.79 60.264 267.694 59.512 267.502 59.064C269.998 58.2 272.35 57.768 274.558 57.768C274.846 58.056 274.99 58.792 274.99 59.976C274.99 62.088 274.094 66.952 272.302 74.568C274.894 72.68 277.166 71.736 279.118 71.736C280.334 71.736 281.246 72.12 281.854 72.888C282.494 73.656 282.814 74.68 282.814 75.96C282.814 77.208 282.446 79.272 281.71 82.152C280.974 85 280.606 86.952 280.606 88.008C280.606 89.064 280.734 89.592 280.99 89.592C281.246 89.592 281.918 89.304 283.006 88.728L283.582 88.44L284.446 90.12C284.158 90.376 283.774 90.696 283.294 91.08C282.814 91.464 281.934 91.976 280.654 92.616C279.374 93.256 278.19 93.576 277.102 93.576C276.046 93.576 275.198 93.24 274.558 92.568C273.918 91.864 273.598 90.936 273.598 89.784C273.598 88.6 273.95 86.472 274.654 83.4C275.39 80.296 275.758 78.344 275.758 77.544C275.758 76.712 275.422 76.296 274.75 76.296C273.918 76.296 272.878 76.648 271.63 77.352C269.87 85.096 268.99 90.12 268.99 92.424C267.646 92.936 265.358 93.192 262.126 93.192C262.094 92.648 262.078 92.168 262.078 91.752C262.078 90.376 263.022 85.672 264.91 77.64C266.83 69.608 267.79 64.168 267.79 61.32ZM292.707 93.576C290.499 93.576 288.771 92.808 287.523 91.272C286.275 89.704 285.651 87.528 285.651 84.744C285.651 81.192 286.595 78.136 288.483 75.576C290.403 73.016 293.043 71.736 296.403 71.736L298.131 71.832C298.675 71.544 299.283 71.4 299.955 71.4C302.483 71.4 303.747 73.784 303.747 78.552C305.059 78.488 306.387 78.312 307.731 78.024L308.499 77.832L308.787 79.704C307.731 80.152 306.307 80.552 304.515 80.904L303.555 81.096C302.947 84.456 301.715 87.384 299.859 89.88C298.003 92.344 295.619 93.576 292.707 93.576ZM295.299 89.448C296.643 89.448 297.843 88.584 298.899 86.856C299.987 85.128 300.739 83.304 301.155 81.384C297.731 81.384 296.019 80.104 296.019 77.544C296.019 76.52 296.227 75.56 296.643 74.664L296.883 74.184C296.755 74.12 296.595 74.088 296.403 74.088C296.211 74.088 296.067 74.12 295.971 74.184C295.171 74.696 294.419 75.896 293.715 77.784C293.011 79.672 292.659 81.832 292.659 84.264C292.659 87.72 293.539 89.448 295.299 89.448ZM320.652 72.312C320.588 73.112 320.316 74.04 319.836 75.096C318.62 74.968 317.468 74.904 316.38 74.904H315.516C314.044 82.04 313.308 86.488 313.308 88.248C313.308 89.176 313.5 89.64 313.884 89.64C314.3 89.64 315.372 89.24 317.1 88.44L317.964 90.024C315.116 92.392 312.476 93.576 310.044 93.576C308.924 93.576 307.996 93.224 307.26 92.52C306.556 91.816 306.204 90.888 306.204 89.736C306.204 88.552 306.332 87.224 306.588 85.752C306.876 84.28 307.26 82.488 307.74 80.376C308.22 78.232 308.572 76.504 308.796 75.192C307.612 75.288 306.732 75.384 306.156 75.48C306.092 75.096 306.06 74.584 306.06 73.944C306.06 73.272 306.108 72.728 306.204 72.312H309.228C309.484 70.584 309.612 68.952 309.612 67.416L309.564 65.928V65.784C312.06 64.92 314.412 64.488 316.62 64.488C316.748 65.128 316.812 65.928 316.812 66.888C316.812 67.848 316.54 69.656 315.996 72.312H320.652ZM334.088 73.128C334.152 73.064 334.328 72.648 334.616 71.88C336.12 71.88 338.136 72.328 340.664 73.224C339.864 75.88 339.224 78.664 338.744 81.576C338.264 84.456 338.024 86.52 338.024 87.768C338.024 88.984 338.152 89.592 338.408 89.592C338.6 89.592 339.304 89.288 340.52 88.68L341.096 88.392L341.96 90.072C341.672 90.328 341.288 90.648 340.808 91.032C340.36 91.416 339.496 91.944 338.216 92.616C336.936 93.256 335.784 93.576 334.76 93.576C332.776 93.576 331.624 92.68 331.304 90.888C329.256 92.68 327.4 93.576 325.736 93.576C324.104 93.576 322.712 92.936 321.56 91.656C320.44 90.376 319.88 88.36 319.88 85.608C319.88 81.32 320.76 77.944 322.52 75.48C324.28 72.984 326.408 71.736 328.904 71.736C330.696 71.736 332.424 72.2 334.088 73.128ZM328.616 89.496C329.384 89.496 330.248 89.192 331.208 88.584C331.432 84.072 332.184 79.608 333.464 75.192C332.504 74.776 331.688 74.568 331.016 74.568C329.864 74.568 328.872 75.704 328.04 77.976C327.24 80.216 326.84 82.696 326.84 85.416C326.84 88.136 327.432 89.496 328.616 89.496ZM352.782 74.712C352.782 76.056 352.35 78.376 351.486 81.672C350.622 84.936 350.19 87.08 350.19 88.104C350.19 89.096 350.334 89.592 350.622 89.592C350.814 89.592 351.55 89.288 352.83 88.68L353.406 88.392L354.222 90.072C353.934 90.328 353.55 90.648 353.07 91.032C352.59 91.416 351.694 91.944 350.382 92.616C349.07 93.256 347.854 93.576 346.734 93.576C345.614 93.576 344.734 93.24 344.094 92.568C343.454 91.864 343.134 90.936 343.134 89.784C343.134 88.6 343.534 86.52 344.334 83.544C345.134 80.536 345.534 78.584 345.534 77.688C345.534 76.344 345.118 75.08 344.286 73.896L343.854 73.32L343.902 72.696C345.598 72.216 348.35 71.976 352.158 71.976C352.574 72.456 352.782 73.368 352.782 74.712ZM347.31 66.744C346.67 66.104 346.35 65.256 346.35 64.2C346.35 63.144 346.782 62.216 347.646 61.416C348.542 60.616 349.566 60.216 350.718 60.216C351.87 60.216 352.766 60.536 353.406 61.176C354.046 61.816 354.366 62.664 354.366 63.72C354.366 64.744 353.902 65.656 352.974 66.456C352.078 67.256 351.07 67.656 349.95 67.656C348.83 67.656 347.95 67.352 347.31 66.744Z" fill="white"/>
</g>
</svg>
